<?xml version="1.0" encoding="UTF-8"?>
<svg data-bbox="-0.01 -0.01 475.11 328.57" viewBox="0 0 475.09 328.57" xmlns="http://www.w3.org/2000/svg" data-type="shape">
    <g>
        <path d="M262.75 324.71c-3.86.18-6.09.37-8.33.37-32.71-.01-65.44.64-98.13-.28-30.73-.86-60.02-8.31-86.45-24.8-33.99-21.2-56.27-51.46-64.62-90.39-7.09-33.01-7.24-66.68 1.2-99.74 13.27-52 47.33-84.32 97.53-100.44C122.11 3.6 140.91.85 160.13.98c33.59.23 67.19.06 101.44.06 2.78 12.85 1.03 25.5 1.34 38.02.32 12.71.07 25.44.07 38.16v115.03c14.6-12.11 24.25-26.25 35.8-38.54 11.5-12.23 22.22-25.19 33.28-37.83 11.36-12.98 22.67-26 34.11-38.91 11.14-12.57 22.48-24.97 33.6-37.56 11.36-12.85 22.57-25.84 34.41-39.42 8.56 7.41 16.36 14.16 24.42 21.13-45.9 52.11-91.41 103.79-137.71 156.35 51.91 43.49 102.89 86.2 154.21 129.2-9.35 7.58-17.75 14.37-27.03 21.89-49.95-41.35-99.79-82.6-150.6-124.67-11.88 13.42-23.21 26.21-34.71 39.2v81.61Zm-35.6-291.46H215.6c-18.62 0-37.26-.33-55.87.13-9.91.24-20 .88-29.65 3.01-36.59 8.07-64.35 28.32-81.31 62.12-15.09 30.08-15.15 62.07-10.03 94.3 8.48 53.39 59.07 100.28 120.38 100.18 19.53-.03 39.07.02 58.6-.04 3.02-.01 6.04-.47 9.43-.75V33.25Z"/>
        <path d="M118.14 162.44c.1-13.95 11-24.97 24.64-24.91 13.58.06 24.6 11.23 24.7 25.04.1 14.64-11.48 26.61-25.53 25.68-13.48-.89-25.17-11.61-23.81-25.82Z"/>
    </g>
</svg>
